<?xml version="1.0" encoding="UTF-8" standalone="no"?>
<!-- Created with Inkscape (http://www.inkscape.org/) -->

<svg
   width="164.34523mm"
   height="25.533985mm"
   viewBox="0 0 164.34523 25.533985"
   version="1.1"
   id="svg5"
   xml:space="preserve"
   xmlns="http://www.w3.org/2000/svg"
   xmlns:svg="http://www.w3.org/2000/svg"><defs
     id="defs2"><clipPath
       clipPathUnits="userSpaceOnUse"
       id="clipPath37"><path
         d="M 0,595.276 H 841.89 V 0 H 0 Z"
         id="path35" /></clipPath></defs><g
     id="layer1"
     transform="translate(-272.03995,-92.233226)" /><g
     id="g19"
     transform="matrix(0.35277776,0,0,-0.35277778,15.025158,0)"><path
       d="M 0,0 V -24.338 H -16.226 V 0 h -26.365 v -70.982 h 26.365 v 24.335 H 0 V -70.982 H 0.002 26.365 V 0 Z"
       style="fill:#000000;fill-opacity:1;fill-rule:nonzero;stroke:none"
       id="path21" /></g><g
     id="g23"
     transform="matrix(0.35277776,0,0,-0.35277778,37.006108,0)"><path
       d="m 0,0 h -26.363 v -70.982 h 13.181 L 0,-47.66 Z"
       style="fill:#000000;fill-opacity:1;fill-rule:nonzero;stroke:none"
       id="path25" /></g><g
     id="g27"
     transform="matrix(0.35277776,0,0,-0.35277778,37.006108,16.813424)"><path
       d="M 0,0 -13.182,-23.322 H 32.024 V 0 Z"
       style="fill:#00b4ed;fill-opacity:1;fill-rule:nonzero;stroke:none"
       id="path29" /></g><g
     id="g31"
     transform="matrix(0.35277776,0,0,-0.35277778,-66.327542,117.76692)"><g
       id="g33"
       clip-path="url(#clipPath37)"><g
         id="g39"
         transform="translate(500.9312,314.2321)"><path
           d="m 0,0 v -5.117 c 5.525,5.096 8.713,6.479 14.017,6.479 11.153,0 17.949,-7.435 17.949,-19.542 V -51.417 H 16.885 v 27.929 c 0,5.203 -0.316,7.221 -1.592,9.133 -1.276,1.91 -3.504,2.972 -6.156,2.972 -2.553,0 -4.889,-0.956 -6.481,-2.76 -1.7,-1.912 -2.232,-4.037 -2.232,-8.497 V -51.417 H -14.653 V 0 Z"
           style="fill:#000000;fill-opacity:1;fill-rule:nonzero;stroke:none"
           id="path41" /></g><g
         id="g43"
         transform="translate(614.5126,288.5777)"><path
           d="m 0,0 c 0,-9.683 4.36,-15.109 12.127,-15.109 7.554,0 12.018,5.426 12.018,14.788 C 24.145,9.574 19.894,15 12.018,15 4.36,15 0,9.574 0,0 m 39.363,-0.427 c 0,-15.531 -11.49,-26.703 -27.345,-26.703 -15.958,0 -27.235,11.172 -27.235,27.13 0,15.852 11.277,27.021 27.235,27.021 16.28,0 27.345,-11.063 27.345,-27.448"
           style="fill:#000000;fill-opacity:1;fill-rule:nonzero;stroke:none"
           id="path45" /></g><g
         id="g47"
         transform="translate(463.2984,288.5206)"><path
           d="m 0,0 c 0,8.534 -6.141,14.408 -13.024,14.408 -7.411,0 -12.812,-5.874 -12.812,-14.408 0,-8.645 5.401,-14.408 12.812,-14.408 C -6.141,-14.408 0,-8.645 0,0 m 14.049,-25.706 h -15.1 v 4.231 c -3.793,-3.562 -8.852,-5.597 -15.174,-5.597 -12.937,0 -23.832,10.889 -23.832,27.072 0,16.081 10.895,27.073 23.832,27.073 6.322,0 11.381,-2.035 15.174,-5.598 v 4.236 h 15.1 z"
           style="fill:#000000;fill-opacity:1;fill-rule:nonzero;stroke:none"
           id="path49" /></g><g
         id="g51"
         transform="translate(399.511,333.7905)"><path
           d="M 0,0 -17.309,-40.308 -34.498,0 h -17.801 v -70.943 h 4.711 8.591 1.228 v 46.085 l 16.219,-35.193 h 8.482 l 16.127,34.994 v -45.886 h 1.32 8.5 4.705 V 0 Z"
           style="fill:#000000;fill-opacity:1;fill-rule:nonzero;stroke:none"
           id="path53" /></g><g
         id="g55"
         transform="translate(566.0604,274.049)"><path
           d="m 0,0 c -7.375,0 -12.748,5.734 -12.748,14.336 0,8.491 5.373,14.336 12.748,14.336 6.848,0 12.958,-5.845 12.958,-14.336 C 12.958,5.734 6.848,0 0,0 M 27.031,-11.234 V 59.748 H 13.317 12.008 L 11.913,35.703 c -3.775,3.545 -8.808,5.57 -15.098,5.57 -12.873,0 -23.713,-10.937 -23.713,-26.937 0,-16.102 10.84,-26.937 23.713,-26.937 6.29,0 11.323,2.025 15.098,5.569 v -4.202 z"
           style="fill:#000000;fill-opacity:1;fill-rule:nonzero;stroke:none"
           id="path57" /></g></g></g></svg>
